# xmcd CD database file
#
# Track frame offsets:
#	150
#	2150
#	7890
#	11790
#	17112
#	21040
#	27335
#	32295
#	38525
#	43387
#	49645
#	54775
#	59027
#	63327
#	69695
#	75935
#	82197
#	88415
#	100065
#	106254
#	113622
#	121055
#	132757
#	139040
#	146515
#	154370
#	160175
#	168367
#	174280
#	180184
#	184645
#
# Disc length: 2519 seconds
#
# Revision: 0
# Processed by: cddbd v1.5.2PL0 Copyright (c) Steve Scherf et al.
# Submitted via: CDex 1.51
#
DISCID=8109d51f
DTITLE=Jerry Coker - Elements of The Jazz Language 2
DYEAR=1900
DGENRE=Jazz
TTITLE0=Tuning Notes
TTITLE1=Exercise A
TTITLE2=Exercise B
TTITLE3=Exercise C
TTITLE4=Exercise D
TTITLE5=Exercise E
TTITLE6=Exercise F
TTITLE7=Exercise G
TTITLE8=Exercise H
TTITLE9=Exercise I
TTITLE10=Exercise J
TTITLE11=Exercise K
TTITLE12=Exercise L
TTITLE13=Exercise M
TTITLE14=Exercise N
TTITLE15=Exercise O
TTITLE16=Exercise P
TTITLE17=Exercise Q
TTITLE18=Exercise R
TTITLE19=Exercise S
TTITLE20=Exercise T
TTITLE21=Exercise U
TTITLE22=Exercise V
TTITLE23=Exercise W
TTITLE24=Exercise X
TTITLE25=Exercise Y
TTITLE26=Exercise Z
TTITLE27=Exercise AA
TTITLE28=Exercise BB
TTITLE29=Exercise CC
TTITLE30=Exercise DD
EXTD=
EXTT0=
EXTT1=
EXTT2=
EXTT3=
EXTT4=
EXTT5=
EXTT6=
EXTT7=
EXTT8=
EXTT9=
EXTT10=
EXTT11=
EXTT12=
EXTT13=
EXTT14=
EXTT15=
EXTT16=
EXTT17=
EXTT18=
EXTT19=
EXTT20=
EXTT21=
EXTT22=
EXTT23=
EXTT24=
EXTT25=
EXTT26=
EXTT27=
EXTT28=
EXTT29=
EXTT30=
PLAYORDER=
